<svg version="1.1" id="Layer_1" xmlns="http://www.w3.org/2000/svg" xmlns:xlink="http://www.w3.org/1999/xlink" x="0px" y="0px"
	 width="100%" viewBox="0 0 96 96" enable-background="new 0 0 96 96" xml:space="preserve">
<path fill="#FFFFFE" opacity="1.000000" stroke="none" 
	d="
M53.000000,97.000000 
	C35.333336,97.000000 18.166674,97.000000 1.000007,97.000000 
	C1.000005,65.000008 1.000005,33.000019 1.000002,1.000020 
	C32.999985,1.000013 64.999969,1.000013 96.999969,1.000007 
	C96.999977,32.999981 96.999977,64.999962 96.999985,96.999969 
	C82.500000,97.000000 68.000000,97.000000 53.000000,97.000000 
M60.983944,66.622917 
	C65.712631,66.622917 70.441322,66.622917 75.170006,66.622917 
	C75.259430,66.270340 75.348862,65.917755 75.438286,65.565178 
	C60.528301,56.962692 45.618317,48.360207 30.450619,39.609032 
	C30.450619,49.065304 30.450619,57.630852 30.450619,66.290298 
	C33.714401,66.290298 36.622383,66.290298 39.675926,66.290298 
	C39.849781,63.371517 40.004650,60.771435 40.211605,57.296921 
	C42.500912,58.264782 44.249500,58.926323 45.930420,59.729492 
	C50.672615,61.995392 55.387032,64.319435 60.983944,66.622917 
M63.937027,39.373890 
	C67.753754,37.175182 71.570488,34.976479 75.828552,32.523529 
	C62.686237,29.735966 51.868618,32.991619 42.607639,41.215500 
	C47.744732,46.625889 53.194317,47.229836 59.029343,42.298218 
	C60.277733,41.243111 61.889732,40.618217 63.937027,39.373890 
M39.845093,32.984367 
	C36.718964,32.451859 33.592838,31.919344 29.988382,31.305353 
	C31.257332,35.695599 34.023258,37.689899 39.900257,39.270332 
	C39.900257,37.411823 39.900257,35.612530 39.845093,32.984367 
z"/>
<path fill="#FF860D" opacity="1.000000" stroke="none" 
	d="
M60.548168,66.621742 
	C55.387032,64.319435 50.672615,61.995392 45.930420,59.729492 
	C44.249500,58.926323 42.500912,58.264782 40.211605,57.296921 
	C40.004650,60.771435 39.849781,63.371517 39.675926,66.290298 
	C36.622383,66.290298 33.714401,66.290298 30.450619,66.290298 
	C30.450619,57.630852 30.450619,49.065304 30.450619,39.609032 
	C45.618317,48.360207 60.528301,56.962692 75.438286,65.565178 
	C75.348862,65.917755 75.259430,66.270340 75.170006,66.622917 
	C70.441322,66.622917 65.712631,66.622917 60.548168,66.621742 
z"/>
<path fill="#FF8307" opacity="1.000000" stroke="none" 
	d="
M63.635628,39.584511 
	C61.889732,40.618217 60.277733,41.243111 59.029343,42.298218 
	C53.194317,47.229836 47.744732,46.625889 42.607639,41.215500 
	C51.868618,32.991619 62.686237,29.735966 75.828552,32.523529 
	C71.570488,34.976479 67.753754,37.175182 63.635628,39.584511 
z"/>
<path fill="#FF8911" opacity="1.000000" stroke="none" 
	d="
M39.872673,33.398804 
	C39.900257,35.612530 39.900257,37.411823 39.900257,39.270332 
	C34.023258,37.689899 31.257332,35.695599 29.988382,31.305353 
	C33.592838,31.919344 36.718964,32.451859 39.872673,33.398804 
z"/>
</svg>